<svg version="1.1" id="Layer_1" xmlns="http://www.w3.org/2000/svg" xmlns:xlink="http://www.w3.org/1999/xlink" x="0px" y="0px"
	width="26px" height="26px" viewBox="0 0 178 189" enable-background="new 0 0 178 189" xml:space="preserve">


<path fill="#FFF" opacity="1.000000" stroke="none" 
	d="
M5.057878,120.810783 
	C-1.592596,89.902824 4.532374,62.883892 25.944805,39.417606 
	C55.492252,7.035995 108.434334,3.041345 142.330658,31.163242 
	C175.289871,58.507671 184.436630,102.343140 164.891449,139.284866 
	C136.185333,193.541382 60.350964,200.895569 21.871845,153.261322 
	C14.102466,143.643417 8.416164,133.104355 5.057878,120.810783 
M151.742569,142.178024 
	C163.009628,126.306267 166.772827,108.332390 164.408813,89.479805 
	C158.975861,46.153065 120.871048,17.481714 77.674759,23.088913 
	C31.070929,29.138437 -4.245952,80.552055 19.667740,131.731857 
	C45.049030,186.052597 118.305023,189.930176 151.742569,142.178024 
z"/>

<path fill="#FFF" opacity="1.000000" stroke="none" 
	d="
M83.205948,77.000443 
	C83.209023,71.174797 83.181076,65.848679 83.226280,60.523186 
	C83.255402,57.092110 84.078407,53.949009 88.246269,53.853970 
	C92.645912,53.753643 93.074661,56.995529 93.065536,60.426609 
	C93.036407,71.384903 93.054733,82.343323 93.054733,93.936264 
	C100.632797,93.936264 107.892708,93.993507 115.151054,93.911690 
	C118.689316,93.871819 121.779144,94.555588 121.696388,98.807587 
	C121.617493,102.860664 118.545273,103.192131 115.260689,103.152626 
	C106.940224,103.052567 98.617622,103.149452 90.296158,103.108688 
	C84.717857,103.081367 83.291489,101.657883 83.225616,95.974091 
	C83.154266,89.816887 83.207207,83.658257 83.205948,77.000443 
z"/>
<path fill="#fff" opacity="1.000000" stroke="none" 
	d="
M23.347569,102.697235 
	C20.810543,100.216927 20.425989,97.468842 22.809996,95.507095 
	C24.092220,94.451988 27.189810,94.084282 28.441294,94.928619 
	C29.748005,95.810219 30.676970,98.741623 30.251781,100.383469 
	C29.422194,103.586891 26.902418,104.787193 23.347569,102.697235 
z"/>
<path fill="#fff" opacity="1.000000" stroke="none" 
	d="
M153.968262,94.639008 
	C157.099182,97.315681 157.305786,100.242027 154.413849,102.334335 
	C153.090256,103.291946 149.046875,103.068214 148.687515,102.272919 
	C147.790573,100.287987 147.805130,97.509987 148.492050,95.386047 
	C148.751511,94.583771 151.866394,94.704979 153.968262,94.639008 
z"/>
<path fill="#fff" opacity="1.000000" stroke="none" 
	d="
M58.580063,148.257446 
	C59.786148,150.484894 61.073963,152.542389 61.272930,154.700302 
	C61.355350,155.594193 59.150867,157.450607 57.907932,157.523071 
	C56.384212,157.611908 54.292477,156.693085 53.302296,155.499695 
	C50.715240,152.381699 53.124622,148.924316 58.580063,148.257446 
z"/>
<path fill="#fff" opacity="1.000000" stroke="none" 
	d="
M61.438675,42.728001 
	C61.901772,46.015850 61.426483,48.902321 57.903374,48.777756 
	C56.069115,48.712898 53.453991,47.080105 52.780312,45.484695 
	C52.260960,44.254784 53.968784,40.687515 55.131523,40.462765 
	C57.002262,40.101170 59.240238,41.639515 61.438675,42.728001 
z"/>
<path fill="#fff" opacity="1.000000" stroke="none" 
	d="
M147.357086,130.710587 
	C146.606659,134.397491 144.254990,135.692215 141.468643,134.359085 
	C139.940781,133.628067 138.132584,130.890503 138.454636,129.533112 
	C138.869522,127.784340 141.151428,125.498077 142.880798,125.258362 
	C145.903473,124.839386 147.585693,127.115242 147.357086,130.710587 
z"/>
<path fill="#fff" opacity="1.000000" stroke="none" 
	d="
M117.064041,48.248135 
	C116.411186,46.460224 115.332611,44.505322 115.904442,43.419819 
	C116.734398,41.844296 118.838364,39.847664 120.247475,39.958412 
	C121.846298,40.084072 124.222160,42.161560 124.508835,43.713913 
	C124.779144,45.177692 123.077515,47.424664 121.650963,48.620342 
	C120.838684,49.301170 118.840225,48.566795 117.064041,48.248135 
z"/>
<path fill="#fff" opacity="1.000000" stroke="none" 
	d="
M144.490723,71.917824 
	C139.046387,71.722580 136.463928,68.327904 138.995972,65.041313 
	C139.965790,63.782494 141.943848,62.657055 143.457169,62.663784 
	C144.669601,62.669182 146.898712,64.506142 146.871902,65.480614 
	C146.813385,67.607979 145.606018,69.703751 144.490723,71.917824 
z"/>
<path fill="#fff" opacity="1.000000" stroke="none" 
	d="
M30.176525,127.586426 
	C34.506668,124.242271 38.518929,125.095070 38.838314,129.213821 
	C38.958248,130.760452 38.109810,133.022247 36.927338,133.849686 
	C35.746368,134.676056 32.727921,134.827820 32.056282,134.009811 
	C30.798691,132.478180 30.654449,130.032394 30.176525,127.586426 
z"/>
<path fill="#fff" opacity="1.000000" stroke="none" 
	d="
M121.467361,148.347260 
	C122.713524,150.560547 124.554855,152.807968 124.194138,154.616089 
	C123.933670,155.921661 120.694359,157.450745 118.880859,157.336487 
	C117.703842,157.262314 115.945953,154.484695 115.780205,152.788223 
	C115.444427,149.351654 117.641106,147.767426 121.467361,148.347260 
z"/>
<path fill="#fff" opacity="1.000000" stroke="none" 
	d="
M89.676880,31.337311 
	C93.942619,34.568836 94.380455,38.579712 90.800797,39.981285 
	C89.336578,40.554581 86.921005,40.526951 85.808182,39.658260 
	C84.678612,38.776482 83.710175,35.976933 84.299660,34.988239 
	C85.290016,33.327225 87.570122,32.435207 89.676880,31.337311 
z"/>
<path fill="#fff" opacity="1.000000" stroke="none" 
	d="
M33.179138,72.011734 
	C31.852673,69.909386 30.358841,67.907471 30.238083,65.825890 
	C30.177256,64.777428 32.551807,62.774754 33.927120,62.679707 
	C35.363430,62.580444 37.396782,63.915108 38.332100,65.221977 
	C40.499924,68.250946 38.520039,70.933159 33.179138,72.011734 
z"/>
<path fill="#fff" opacity="1.000000" stroke="none" 
	d="
M88.906631,156.512939 
	C90.541534,158.078506 92.584656,159.485443 92.845512,161.168594 
	C93.063263,162.573639 91.428658,165.352234 90.190002,165.629990 
	C88.526688,166.002991 85.797997,165.062958 84.765152,163.728210 
	C83.930199,162.649231 84.578255,160.012405 85.250206,158.340668 
	C85.618202,157.425156 87.399178,157.077591 88.906631,156.512939 
z"/>
</svg>