<svg version="1.1" id="Layer_1" xmlns="http://www.w3.org/2000/svg" xmlns:xlink="http://www.w3.org/1999/xlink" x="0px" y="0px"
	 width="50px" height="24px"  viewBox="0 0 356 208" enable-background="new 0 0 356 208" xml:space="preserve">

<path fill="#FF4E3C" opacity="1.000000" stroke="none" 
	d="
M166.609039,91.092957 
	C178.880768,96.028351 181.989105,108.630539 172.949402,116.004761 
	C170.913101,117.665878 167.935226,118.172768 165.200989,119.523422 
	C164.253448,119.881271 163.495712,119.926697 162.363327,119.903870 
	C156.920959,117.690712 152.369278,115.062523 150.655396,109.250809 
	C148.576401,102.201057 151.754929,95.725250 159.648621,91.926956 
	C162.067307,91.568352 164.137360,91.294930 166.609039,91.092957 
z"/>
<path fill="#FF4E3C" opacity="1.000000" stroke="none" 
	d="
M223.362762,119.904114 
	C217.447678,117.763237 212.723770,114.808296 211.232376,108.547546 
	C209.558731,101.521797 212.967911,95.352020 220.645660,91.922180 
	C223.067291,91.569168 225.136490,91.295403 227.780762,91.396286 
	C234.151794,92.815323 236.567398,97.326973 238.836563,101.988823 
	C238.881973,104.034843 238.927399,106.080864 238.603241,108.714523 
	C236.366257,115.383858 231.595673,118.092812 225.994766,119.837128 
	C225.241486,119.882286 224.488190,119.927437 223.362762,119.904114 
z"/>
<path fill="#FF4E3C" opacity="1.000000" stroke="none" 
	d="
M101.583107,91.092148 
	C108.067940,93.593903 112.365051,97.570778 112.789970,104.444244 
	C113.135056,110.026352 110.679688,114.434669 105.907974,117.314865 
	C104.279053,118.298065 102.239136,118.600357 100.199448,119.524803 
	C99.258133,119.881134 98.504364,119.926422 97.202927,119.598007 
	C89.609032,117.333702 85.295685,112.563812 84.923553,106.250854 
	C84.512581,99.278793 88.137260,94.316437 95.942810,91.164978 
	C97.680206,91.116608 99.417595,91.068245 101.583107,91.092148 
z"/>
</svg>