<svg version="1.1" id="Layer_1" xmlns="http://www.w3.org/2000/svg" xmlns:xlink="http://www.w3.org/1999/xlink" x="0px" y="0px"
	 width="32px" height="32px" viewBox="0 0 162 158" enable-background="new 0 0 162 158" xml:space="preserve">
<path fill="#0D9BD5" opacity="1.000000" stroke="none" 
	d="
M72.000000,1.000000 
	C72.444443,1.000000 72.888885,1.000000 73.419952,1.358358 
	C75.337540,3.566543 76.985367,4.268172 78.000000,1.000000 
	C79.714188,1.000000 81.428375,1.000000 83.289322,1.303624 
	C85.492706,3.269856 87.456924,4.084922 88.961182,1.053308 
	C88.926361,1.105617 88.996964,1.001000 89.150620,1.468916 
	C89.875038,2.238933 90.445808,2.541033 91.439041,2.900920 
	C121.614265,4.880317 151.728470,33.094692 157.075699,64.002655 
	C157.485306,66.370216 158.237411,68.678520 158.896637,71.476707 
	C158.913956,77.271400 158.864975,82.603745 158.480530,88.146614 
	C153.828979,126.482521 120.289497,155.659988 84.571190,156.093002 
	C81.750504,156.069717 79.370583,156.119308 76.549759,156.104858 
	C47.479515,155.362854 19.066702,134.279312 8.850099,106.009239 
	C7.073118,101.092209 5.712835,96.024582 4.094518,90.560333 
	C4.073274,82.720642 4.117599,75.347122 4.493872,67.789978 
	C5.486151,64.686760 6.114557,61.759510 6.811760,58.848747 
	C13.629504,30.385191 42.215836,5.442558 71.351593,2.774313 
	C71.738174,2.261866 71.755180,1.819265 71.771698,1.247757 
	C71.771210,1.118850 72.000000,1.000000 72.000000,1.000000 
M36.019047,23.482767 
	C35.772640,23.706554 35.533173,23.938574 35.278843,24.152962 
	C8.428653,46.786293 4.703640,79.285461 14.045177,104.704475 
	C23.181829,129.565964 49.214844,151.777695 83.190048,151.150360 
	C125.487579,150.369370 159.053848,110.975189 152.400681,68.630325 
	C143.755463,13.606788 80.747154,-11.193098 36.019047,23.482767 
z"/>

<path fill="#FCFEFF" opacity="1.000000" stroke="none" 
	d="
M158.531342,1.000000 
	C158.996811,24.027199 158.993607,47.054398 158.910370,70.547981 
	C158.237411,68.678520 157.485306,66.370216 157.075699,64.002655 
	C151.728470,33.094692 121.614265,4.880317 91.560272,2.555460 
	C91.327316,2.002546 91.486877,1.817954 91.445648,1.710191 
	C91.347664,1.454111 91.154625,1.234404 91.000000,1.000000 
	C113.354225,1.000000 135.708450,1.000000 158.531342,1.000000 
z"/>
<path fill="#FCFEFF" opacity="1.000000" stroke="none" 
	d="
M4.493872,67.789978 
	C4.109529,46.496025 4.051589,25.018452 4.033849,3.540846 
	C4.033360,2.949275 4.464843,2.357347 4.347446,1.382793 
	C26.354227,1.000000 48.708454,1.000000 71.531342,1.000000 
	C72.000000,1.000000 71.771210,1.118850 71.410973,1.290754 
	C71.027832,1.923159 71.004929,2.383659 70.982025,2.844159 
	C42.215836,5.442558 13.629504,30.385191 6.811760,58.848747 
	C6.114557,61.759510 5.486151,64.686760 4.493872,67.789978 
z"/>

<path fill="#FCFEFF" opacity="1.000000" stroke="none" 
	d="
M89.750000,1.000000 
	C89.832817,1.000333 89.665642,1.000667 89.247711,1.001000 
	C88.996964,1.001000 88.926361,1.105617 88.961182,1.053308 
	C88.996002,1.001000 89.079475,1.007720 89.039734,1.003860 
	C89.000000,1.000000 89.500000,1.000000 89.750000,1.000000 
z"/>
<path fill="#FCFEFF" opacity="1.000000" stroke="none" 
	d="
M36.299267,23.263103 
	C80.747154,-11.193098 143.755463,13.606788 152.400681,68.630325 
	C159.053848,110.975189 125.487579,150.369370 83.190048,151.150360 
	C49.214844,151.777695 23.181829,129.565964 14.045177,104.704475 
	C4.703640,79.285461 8.428653,46.786293 35.278843,24.152962 
	C35.533173,23.938574 35.772640,23.706554 36.299267,23.263103 
M47.488338,57.152924 
	C47.349842,57.440590 47.211346,57.728260 46.708382,58.603611 
	C46.771179,59.052010 46.833981,59.500412 46.940701,60.819916 
	C48.424061,61.259583 49.905758,62.075485 51.391037,62.082066 
	C71.262955,62.170143 91.135429,62.165707 111.007515,62.103268 
	C112.376495,62.098965 113.743454,61.451897 115.059608,61.136112 
	C115.059608,61.136112 115.122810,61.130676 115.761963,60.755535 
	C115.177620,59.510105 114.593269,58.264679 113.363686,56.777039 
	C112.913254,56.837471 112.462830,56.897903 111.089928,56.763504 
	C97.995613,56.746906 84.901039,56.675068 71.807068,56.734291 
	C63.870872,56.770187 55.935593,57.008938 47.488338,57.152924 
M49.917793,104.082703 
	C71.280098,104.005470 92.642403,103.928238 114.789597,103.832458 
	C117.471275,100.284592 116.081924,98.901253 112.152176,98.896660 
	C103.367592,98.886406 94.582985,98.884613 85.798393,98.883858 
	C74.030334,98.882858 62.261799,98.838745 50.494915,98.957077 
	C49.249283,98.969597 48.013344,99.946274 46.772907,100.475662 
	C47.515678,101.606850 48.258450,102.738045 49.917793,104.082703 
M46.763519,79.559738 
	C46.224213,82.700417 48.051498,83.165741 50.589779,83.126419 
	C55.752125,83.046440 60.916634,83.107681 66.080254,83.108246 
	C81.404541,83.109917 96.729248,83.158951 112.052383,83.026550 
	C113.395569,83.014946 114.833046,81.946083 115.986832,81.056992 
	C116.249763,80.854378 115.748512,78.800133 115.193275,78.567848 
	C113.881065,78.018852 112.325188,77.880280 110.867271,77.877518 
	C91.045738,77.840004 71.224075,77.836533 51.402626,77.892067 
	C49.987392,77.896027 48.573631,78.425499 46.763519,79.559738 
z"/>

<path fill="#0098DA" opacity="1.000000" stroke="none" 
	d="
M46.896782,59.948811 
	C46.833981,59.500412 46.771179,59.052010 47.123535,58.304604 
	C47.538689,58.005596 48.004868,57.993359 48.473213,57.995285 
	C68.246574,57.997742 87.551682,58.024582 106.856422,57.953587 
	C108.576279,57.947262 110.293793,57.305157 112.012398,56.958332 
	C112.462830,56.897903 112.913254,56.837471 113.826370,57.227219 
	C114.566978,58.828495 114.844894,59.979588 115.122803,61.130676 
	C115.122810,61.130676 115.059608,61.136112 114.609756,61.080765 
	C94.518494,61.016899 74.876877,61.049480 55.235889,60.953300 
	C52.454613,60.939674 49.676407,60.299164 46.896782,59.948811 
z"/>
<path fill="#0394C5" opacity="1.000000" stroke="none" 
	d="
M46.961349,79.135178 
	C48.573631,78.425499 49.987392,77.896027 51.402626,77.892067 
	C71.224075,77.836533 91.045738,77.840004 110.867271,77.877518 
	C112.325188,77.880280 113.881065,78.018852 115.193275,78.567848 
	C115.748512,78.800133 116.249763,80.854378 115.986832,81.056992 
	C114.833046,81.946083 113.395569,83.014946 112.052383,83.026550 
	C96.729248,83.158951 81.404541,83.109917 66.080254,83.108246 
	C60.916634,83.107681 55.752125,83.046440 50.589779,83.126419 
	C48.051498,83.165741 46.224213,82.700417 46.961349,79.135178 
M70.500046,79.003471 
	C63.067131,79.003471 55.634220,79.003471 48.201305,79.003471 
	C51.526287,82.789009 110.720390,82.725830 113.750587,79.003464 
	C99.667068,79.003464 85.583549,79.003464 70.500046,79.003471 
z"/>
<path fill="#0696C8" opacity="1.000000" stroke="none" 
	d="
M49.001221,103.869232 
	C48.258450,102.738045 47.515678,101.606850 46.772907,100.475662 
	C48.013344,99.946274 49.249283,98.969597 50.494915,98.957077 
	C62.261799,98.838745 74.030334,98.882858 85.798393,98.883858 
	C94.582985,98.884613 103.367592,98.886406 112.152176,98.896660 
	C116.081924,98.901253 117.471275,100.284592 114.395721,103.621613 
	C114.001854,103.410759 114.001938,102.970459 114.196823,102.725693 
	C112.882019,101.653191 111.387482,100.142662 109.860153,100.108719 
	C100.068581,99.891159 90.269821,99.997223 80.473419,99.997681 
	C70.843063,99.998131 61.212330,99.956818 51.582699,100.041176 
	C49.914669,100.055786 46.676929,99.246658 49.003433,103.210526 
	C49.003090,103.430099 49.001221,103.869232 49.001221,103.869232 
z"/>
<path fill="#0493C1" opacity="1.000000" stroke="none" 
	d="
M46.918739,60.384361 
	C49.676407,60.299164 52.454613,60.939674 55.235889,60.953300 
	C74.876877,61.049480 94.518494,61.016899 114.635628,61.064583 
	C113.743454,61.451897 112.376495,62.098965 111.007515,62.103268 
	C91.135429,62.165707 71.262955,62.170143 51.391037,62.082066 
	C49.905758,62.075485 48.424061,61.259583 46.918739,60.384361 
z"/>
<path fill="#0293BF" opacity="1.000000" stroke="none" 
	d="
M114.001938,102.970459 
	C114.001938,102.970459 114.001854,103.410759 114.003281,103.630890 
	C92.642403,103.928238 71.280098,104.005470 49.459507,103.975967 
	C49.001221,103.869232 49.003090,103.430099 49.471603,103.213272 
	C71.294060,102.987778 92.647995,102.979118 114.001938,102.970459 
z"/>
<path fill="#0094CA" opacity="1.000000" stroke="none" 
	d="
M111.551163,56.860916 
	C110.293793,57.305157 108.576279,57.947262 106.856422,57.953587 
	C87.551682,58.024582 68.246574,57.997742 48.471928,57.786156 
	C48.002293,57.575100 47.999901,57.156548 47.999901,57.156548 
	C55.935593,57.008938 63.870872,56.770187 71.807068,56.734291 
	C84.901039,56.675068 97.995613,56.746906 111.551163,56.860916 
z"/>
<path fill="#0493C1" opacity="1.000000" stroke="none" 
	d="
M115.442383,60.943108 
	C114.844894,59.979588 114.566978,58.828495 114.148987,57.348328 
	C114.593269,58.264679 115.177620,59.510105 115.442383,60.943108 
z"/>
<path fill="#0493C1" opacity="1.000000" stroke="none" 
	d="
M47.744118,57.154736 
	C47.999901,57.156548 48.002293,57.575100 48.003578,57.784229 
	C48.004868,57.993359 47.538689,58.005596 47.305771,58.010761 
	C47.211346,57.728260 47.349842,57.440590 47.744118,57.154736 
z"/>
<path fill="#0098DB" opacity="1.000000" stroke="none" 
	d="
M71.000038,79.003464 
	C85.583549,79.003464 99.667068,79.003464 113.750587,79.003464 
	C110.720390,82.725830 51.526287,82.789009 48.201305,79.003471 
	C55.634220,79.003471 63.067131,79.003471 71.000038,79.003464 
z"/>
<path fill="#0098DB" opacity="1.000000" stroke="none" 
	d="
M114.196823,102.725693 
	C92.647995,102.979118 71.294060,102.987778 49.471951,102.993698 
	C46.676929,99.246658 49.914669,100.055786 51.582699,100.041176 
	C61.212330,99.956818 70.843063,99.998131 80.473419,99.997681 
	C90.269821,99.997223 100.068581,99.891159 109.860153,100.108719 
	C111.387482,100.142662 112.882019,101.653191 114.196823,102.725693 
z"/>
</svg>