<svg version="1.1" id="Layer_1" xmlns="http://www.w3.org/2000/svg" xmlns:xlink="http://www.w3.org/1999/xlink" x="0px" y="0px"
	 width="30px" height="31px" viewBox="0 0 225 262" enable-background="new 0 0 225 262" xml:space="preserve">

<path fill="#e74c3c" opacity="1.000000" stroke="none" 
	d="
M148.175278,258.808075 
	C145.367096,258.820801 142.558929,258.833496 139.090210,258.570190 
	C132.733231,255.735840 128.546753,251.948868 128.602890,245.614609 
	C116.509338,245.614609 105.152946,245.614609 93.276398,245.614609 
	C92.687698,251.823273 88.639076,255.869705 83.192352,258.806671 
	C80.040321,258.807739 76.888290,258.808777 73.072655,258.555786 
	C65.511909,255.194824 62.609146,249.742462 62.952446,242.329834 
	C63.052525,240.168945 63.401649,237.883057 62.860138,235.862579 
	C62.138279,233.169159 61.080551,230.356140 59.411709,228.171539 
	C56.324799,224.130630 52.782681,220.418427 49.237965,216.755295 
	C47.746132,215.213623 45.938675,213.463715 43.980927,212.967529 
	C27.799253,208.866272 17.839396,196.464188 17.858521,178.299942 
	C17.870617,166.812531 19.849817,155.926147 24.031090,145.362289 
	C25.233673,142.324020 24.574116,140.329132 22.472881,137.802734 
	C18.584064,133.127090 14.342199,128.310730 12.105990,122.798920 
	C8.923224,114.954025 7.417272,106.428810 5.194971,98.194237 
	C5.200943,95.374687 5.206914,92.555145 5.445067,88.984116 
	C7.077858,69.115219 15.565116,53.593094 31.516344,40.428967 
	C29.238255,38.851574 27.430365,38.075634 26.292040,36.732307 
	C20.113562,29.441147 13.936284,22.136763 8.093375,14.578140 
	C4.716205,10.209298 5.373935,7.866999 9.868899,4.184280 
	C11.012767,4.157643 12.156634,4.131006 13.879606,4.426620 
	C24.701561,15.315020 37.732330,20.834614 51.508904,24.775444 
	C54.685448,25.684107 58.445286,25.775663 61.674435,25.059940 
	C73.574051,22.422461 85.218117,18.077467 97.229774,16.634516 
	C113.792297,14.644876 130.421371,15.708126 146.512985,21.531086 
	C152.755234,23.789923 159.859085,26.397276 166.070602,25.475967 
	C181.793747,23.143877 194.969513,14.650995 206.804291,4.192016 
	C213.166092,3.923081 215.296066,5.378311 215.582123,10.973328 
	C207.395462,21.849915 199.481400,32.128574 192.015884,41.824673 
	C196.611145,47.399857 202.230331,52.543983 205.710541,58.865669 
	C210.005295,66.666916 212.520905,75.447609 215.805328,83.805061 
	C215.808624,89.947227 215.811935,96.089394 215.578552,102.994080 
	C213.881882,117.119469 207.800018,128.398956 199.042694,138.215103 
	C196.454895,141.115768 196.536438,143.261795 197.702164,146.488419 
	C201.481415,156.949020 204.546417,167.635437 203.953888,178.917313 
	C203.155212,194.124695 196.493439,207.014053 180.798187,211.725021 
	C175.805008,213.223740 172.554977,215.772766 169.760712,219.745697 
	C168.152756,222.031906 166.413116,224.366562 164.267365,226.104904 
	C159.361710,230.079041 156.833496,234.807556 157.968796,241.213318 
	C158.140381,242.181458 157.874252,243.222778 158.011658,244.202057 
	C159.013947,251.345200 154.936447,256.425537 148.175278,258.808075 
M180.024704,193.842728 
	C180.110733,195.410492 180.196762,196.978256 180.289978,198.677139 
	C196.152374,193.441116 193.415604,165.670593 185.861755,150.044449 
	C184.189499,151.079468 182.549347,152.094620 180.347672,153.707199 
	C180.231598,166.817535 180.115524,179.927887 180.024704,193.842728 
M40.347572,152.746078 
	C38.619652,151.941437 36.891731,151.136795 34.677414,150.105667 
	C30.904274,163.247772 27.208073,175.801926 31.361511,188.813431 
	C32.462528,192.262589 35.634552,195.259201 38.395393,197.899139 
	C40.347294,199.765533 41.776325,198.765503 41.637997,195.298508 
	C41.742775,181.936386 41.863323,168.574326 41.909908,155.211990 
	C41.912476,154.474731 41.300892,153.735352 40.347572,152.746078 
M177.138062,34.991505 
	C168.527512,37.481659 159.737656,38.481682 151.187103,35.475643 
	C141.486328,32.065231 131.969742,28.745584 121.531464,27.698025 
	C105.659782,26.105183 90.594902,28.075825 75.674774,33.491978 
	C70.186760,35.484188 64.155960,36.421925 58.302296,36.829933 
	C53.414268,37.170639 48.423428,36.036308 43.478123,35.555210 
	C43.242016,35.947136 43.005913,36.339058 42.769806,36.730980 
	C47.670002,40.781132 52.376728,45.096935 57.506042,48.832478 
	C74.029381,60.865974 90.665199,72.747459 107.413025,84.465477 
	C108.696877,85.363747 111.722916,85.291771 113.049622,84.378525 
	C129.936203,72.754524 146.785934,61.066845 163.353195,48.994877 
	C168.766678,45.050270 173.337158,39.948765 178.705093,35.216156 
	C178.804657,34.904331 178.904205,34.592503 179.003769,34.280682 
	C178.648468,34.494198 178.293167,34.707710 177.138062,34.991505 
M53.018990,196.641724 
	C53.656540,199.026581 53.987720,201.548172 54.981091,203.774246 
	C61.708012,218.848984 73.912666,227.417770 89.126793,232.572052 
	C104.573685,237.805176 120.038620,236.686401 134.834991,231.314835 
	C152.363449,224.951462 165.147980,213.211807 169.582596,193.254486 
	C169.701309,182.222687 169.840195,171.190979 169.892410,160.158875 
	C169.895828,159.438980 169.234467,158.715927 168.099670,158.037918 
	C162.425385,159.023621 156.785522,160.448669 151.069107,160.896408 
	C141.490326,161.646683 132.333679,159.253296 123.491508,155.709106 
	C119.970482,154.297775 117.815750,154.303879 116.647949,158.863907 
	C116.129440,160.888611 112.999557,163.624420 111.139709,163.560791 
	C109.028183,163.488602 106.793831,160.845551 105.031731,158.934006 
	C103.899734,157.706009 103.523460,155.781372 102.715889,153.960312 
	C86.350708,161.222412 69.976608,163.248856 52.451565,158.570847 
	C52.302650,168.262451 52.083408,177.953812 52.049774,187.645813 
	C52.040291,190.378967 52.574497,193.114029 53.018990,196.641724 
M91.262703,133.960800 
	C90.470200,134.191406 89.651100,134.355927 88.889153,134.662491 
	C75.727684,139.957916 62.744881,139.301132 50.613640,132.171295 
	C37.908703,124.704292 30.500101,113.457901 28.826906,98.470787 
	C27.663570,88.050545 29.194248,78.306244 35.174801,69.755249 
	C38.612888,64.839478 43.232067,60.749752 47.441475,56.155121 
	C46.630512,55.277580 45.779945,54.259575 44.829464,53.345451 
	C40.548733,49.228477 38.697563,48.830425 35.021694,53.269665 
	C30.013336,59.318123 24.658148,65.511322 21.480858,72.557465 
	C14.009754,89.125816 15.413239,106.068657 24.422195,121.612396 
	C31.930258,134.566528 43.188793,143.417130 58.251022,147.255142 
	C73.025696,151.019897 86.567352,148.736847 99.831917,141.492218 
	C99.234840,139.635330 98.470535,138.113342 98.286400,136.524124 
	C97.751114,131.904190 95.604820,131.254425 91.262703,133.960800 
M192.992630,96.351364 
	C192.469879,108.598984 187.562164,119.129440 178.396881,126.855690 
	C161.976974,140.697510 143.761490,141.464706 124.900108,131.185730 
	C124.108910,133.390961 123.631897,134.968658 122.985626,136.473663 
	C121.265182,140.480194 122.345085,142.530792 126.578262,144.405792 
	C136.784653,148.926422 147.059952,149.669800 157.997925,148.041321 
	C174.039780,145.652985 185.754898,136.927277 195.003281,124.341606 
	C202.492386,114.150085 204.565125,102.417404 204.014236,89.973083 
	C203.311493,74.098297 196.360077,61.402901 184.577911,51.237053 
	C179.980362,47.270206 178.337662,53.755623 175.057373,54.684723 
	C175.572250,56.470119 175.506256,58.996857 176.692047,59.925983 
	C188.274857,69.001709 193.275436,80.957832 192.992630,96.351364 
M131.023010,92.817490 
	C131.344421,91.247162 131.665833,89.676842 131.987244,88.106514 
	C126.780182,90.356346 122.313248,93.288033 118.193871,96.646049 
	C117.253754,97.412399 116.976234,99.775444 117.304184,101.192963 
	C120.819923,116.389496 133.444885,127.330109 151.827896,126.053444 
	C165.515930,125.102852 176.984528,114.618439 180.542969,101.561714 
	C184.137665,88.371979 177.782471,73.568367 165.839005,66.440834 
	C164.683350,65.751175 162.482071,65.407051 161.518494,66.042793 
	C157.064713,68.981316 152.877029,72.323166 149.243225,75.035828 
	C153.885132,77.842117 158.976456,79.759575 162.472839,83.266968 
	C170.634308,91.454117 165.780289,108.838348 154.898209,110.762306 
	C142.150253,113.016159 133.025757,108.024628 131.023010,92.817490 
M89.507149,87.804451 
	C89.408813,88.276077 89.093857,88.835060 89.243706,89.206589 
	C93.396660,99.503685 83.841728,111.947311 71.799377,111.353592 
	C62.251366,110.882866 56.238464,103.535103 55.075382,96.070999 
	C53.854290,88.234596 58.165756,79.106133 67.885292,77.154884 
	C69.406250,76.849556 70.877983,76.299011 73.287102,75.594315 
	C68.148857,71.784355 63.882877,68.465050 59.410328,65.452423 
	C58.628769,64.925980 56.568604,65.237656 55.799198,65.934914 
	C52.276718,69.127121 48.353985,72.159836 45.757740,76.041000 
	C36.600140,89.730827 38.110912,106.568802 50.181057,117.578377 
	C59.779121,126.333092 70.988708,128.907547 83.097984,124.247948 
	C92.904892,120.474289 100.362335,113.642120 103.249420,103.103035 
	C103.895592,100.744240 103.742516,96.825363 102.268967,95.495270 
	C98.779694,92.345703 94.276535,90.319397 89.507149,87.804451 
M70.068466,99.456146 
	C73.917595,100.583214 77.070709,99.084976 77.620827,95.447624 
	C77.945221,93.302757 76.222313,89.875526 74.363953,88.712128 
	C73.106026,87.924629 69.077148,89.430092 67.957230,91.058350 
	C66.301796,93.465218 65.616699,96.994995 70.068466,99.456146 
M144.428787,97.636131 
	C145.089798,98.103699 145.744492,98.580505 146.412918,99.037201 
	C149.057739,100.844269 151.007858,99.730011 152.839127,97.618271 
	C154.678055,95.497704 155.502747,93.135338 153.280502,91.097481 
	C151.795868,89.736023 149.506592,88.359154 147.675186,88.479324 
	C144.972702,88.656662 143.570953,90.929062 143.994324,93.900665 
	C144.133545,94.877922 144.101562,95.879562 144.428787,97.636131 
M107.193741,126.207443 
	C108.323845,128.572998 109.453949,130.938538 111.179092,134.549622 
	C112.235794,128.738815 116.431534,124.459282 110.398735,119.523636 
	C109.161469,121.733887 108.119110,123.595947 107.193741,126.207443 
M80.839821,244.984528 
	C80.048172,243.432266 79.439041,241.728760 78.354027,240.419632 
	C78.027206,240.025314 75.568153,240.549698 75.478523,240.958527 
	C75.143616,242.486282 74.888954,244.374832 75.512947,245.700211 
	C76.939796,248.730911 78.853081,247.019928 80.839821,244.984528 
M141.124451,245.298523 
	C142.458649,245.734634 143.792831,246.170746 145.127029,246.606873 
	C145.404678,244.557617 145.682327,242.508362 145.959976,240.459106 
	C145.253036,240.206345 144.546082,239.953598 143.839127,239.700836 
	C142.904404,241.298874 141.969681,242.896896 141.124451,245.298523 
z"/>

</svg>