<svg version="1.1" id="Layer_1" xmlns="http://www.w3.org/2000/svg" xmlns:xlink="http://www.w3.org/1999/xlink" x="0px" y="0px"
	 width="30px" height="33px" viewBox="0 0 156 255" enable-background="new 0 0 156 255" xml:space="preserve">
<path fill="#ffffff99" opacity="1.000000" stroke="none" 
	d="
M16.434843,126.162262 
	C16.101257,124.930916 16.045349,123.872192 16.073639,122.424362 
	C43.192654,98.140305 55.769371,66.146248 65.935234,32.855915 
	C68.304405,25.097544 70.080162,17.151524 71.940880,9.247566 
	C72.659355,6.195601 73.650978,3.601758 77.321953,4.095724 
	C80.673683,4.546735 81.059456,7.092113 81.051300,10.062774 
	C80.974007,38.227577 81.005219,66.392670 81.005203,94.557686 
	C81.005203,96.354729 81.005203,98.151772 81.005203,100.304230 
	C83.154480,100.304230 84.853844,100.304230 86.994797,100.304230 
	C86.994797,98.135590 86.994797,96.341278 86.994797,94.546967 
	C86.994781,66.548615 87.019051,38.550201 86.959648,10.551974 
	C86.953247,7.533318 86.956383,4.562576 90.689034,4.103243 
	C94.680946,3.612006 95.382072,6.570645 96.115593,9.753869 
	C102.250458,36.377033 110.624939,62.235752 123.939735,86.215828 
	C130.806412,98.582764 138.703293,110.299698 149.478149,119.778358 
	C153.255402,123.101212 152.867813,125.133728 148.454880,129.061920 
	C132.441528,143.316284 119.811310,159.961304 112.521248,180.337952 
	C112.354942,180.802811 112.156914,181.267014 112.078186,181.748611 
	C112.028694,182.051285 112.174522,182.385910 112.231239,182.711746 
	C112.468681,182.928864 112.685852,183.292206 112.949692,183.330032 
	C122.193306,184.655121 122.141083,184.651184 122.214104,194.370972 
	C122.322472,208.797272 121.104088,223.302444 125.437714,237.454391 
	C126.652161,241.420334 124.509506,243.928680 120.271011,243.944138 
	C96.106094,244.032272 71.940536,244.031006 47.775597,243.946167 
	C43.516491,243.931229 41.343460,241.439133 42.549442,237.499191 
	C46.830318,223.513580 45.510326,209.176300 45.855434,194.919052 
	C46.087597,185.327759 43.520927,184.345230 56.554291,183.053741 
	C54.501381,178.007309 52.957054,172.990662 50.524044,168.450226 
	C41.888161,152.334183 30.778629,138.128555 16.434843,126.162262 
M71.902985,66.500694 
	C71.902985,60.339188 71.902985,54.177677 71.902985,48.016171 
	C60.855091,75.581604 49.442291,102.559631 28.288443,123.793228 
	C29.045334,124.814407 29.287399,125.270355 29.644083,125.603653 
	C46.209156,141.082657 59.245678,158.793243 65.242569,181.090103 
	C65.550293,182.234222 67.900772,183.528458 69.326332,183.559692 
	C79.151550,183.775009 88.988564,183.824005 98.808426,183.509415 
	C100.277702,183.462341 102.527512,181.484940 102.978706,179.971848 
	C108.168259,162.568420 117.242340,147.504852 129.687332,134.388458 
	C132.952759,130.946869 136.258408,127.543442 139.864990,123.790070 
	C118.197487,102.309669 107.212311,75.185661 96.573433,47.845406 
	C96.097824,65.753693 96.030838,83.414276 96.193184,101.072739 
	C96.210976,103.008041 97.195610,105.174545 98.334137,106.816063 
	C102.326637,112.572395 103.346718,118.801460 101.005096,125.235886 
	C98.550049,131.981949 93.460876,136.134430 86.201958,136.954163 
	C78.086746,137.870575 71.800766,134.505630 67.978073,127.422935 
	C64.269249,120.551216 65.316116,113.733208 69.392616,107.135994 
	C70.689102,105.037819 71.735176,102.402199 71.791985,99.986549 
	C72.046509,89.162941 71.902878,78.329964 71.902985,66.500694 
M96.497360,217.065506 
	C101.603935,217.065506 106.710518,217.065506 112.024139,217.065506 
	C112.024139,208.894592 112.024139,201.194366 112.024139,193.268951 
	C93.230110,193.268951 74.716995,193.268951 55.970955,193.268951 
	C55.970955,201.239777 55.970955,208.940201 55.970955,217.065536 
	C69.328300,217.065536 82.413460,217.065536 96.497360,217.065506 
M114.864647,231.824677 
	C114.650429,227.158936 111.802376,226.591171 107.796745,226.639755 
	C92.005333,226.831284 76.210220,226.716812 60.416481,226.719009 
	C53.593685,226.719955 53.071190,227.301575 53.408009,234.932068 
	C73.300919,234.932068 93.215706,234.952316 113.129730,234.838013 
	C113.751633,234.834427 114.365547,233.439438 114.864647,231.824677 
M78.039078,125.453178 
	C84.688171,129.583557 92.339470,126.919838 93.019554,120.258476 
	C93.496429,115.587517 91.833618,111.932579 87.394417,110.305344 
	C83.363693,108.827843 79.498817,109.600266 76.675758,113.234413 
	C73.997345,116.682358 74.306610,120.973686 78.039078,125.453178 
z"/>
</svg>