<svg version="1.1" id="Layer_1" xmlns="http://www.w3.org/2000/svg" xmlns:xlink="http://www.w3.org/1999/xlink" x="0px" y="0px"
	 width="26px" height="24px"  viewBox="0 0 121 106" enable-background="new 0 0 121 106" xml:space="preserve">
<path fill="#FF503F" opacity="1.000000" stroke="none" 
	d="
M9.000000,107.000000 
	C6.666667,107.000000 4.326325,107.090309 2.006958,106.910332 
	C1.624197,106.880623 1.333333,105.666664 1.285499,104.343124 
	C1.834748,103.113556 2.329129,102.540901 2.329230,101.968170 
	C2.334822,70.265648 2.310101,38.563091 2.214374,6.860758 
	C2.211491,5.905958 1.422489,4.953533 1.000000,4.000000 
	C1.000000,3.046616 1.000000,2.093232 1.000000,1.000000 
	C3.336044,1.000000 5.673289,1.000000 8.863734,1.204326 
	C11.184916,1.599594 12.652725,1.955650 14.120901,1.957165 
	C45.316818,1.989367 76.512810,1.997670 107.708649,1.939922 
	C109.473000,1.936656 111.236244,1.327279 113.000000,1.000001 
	C115.888908,1.000000 118.777809,1.000000 122.000000,1.000000 
	C122.000000,2.326223 122.000000,3.663149 121.608521,5.697852 
	C121.118698,6.878672 120.934433,7.361691 120.934296,7.844762 
	C120.925667,38.077217 120.920349,68.309700 120.981934,98.542046 
	C120.984276,99.695381 121.645699,100.847382 122.000000,102.000000 
	C122.000000,103.607147 122.000000,105.214294 122.000000,107.000000 
	C119.328659,107.000000 116.655380,107.000000 113.132660,106.795471 
	C110.815292,106.399666 109.347549,106.042976 107.879440,106.041458 
	C76.683266,106.009209 45.487030,106.000893 14.290936,106.058723 
	C12.526715,106.061989 10.763619,106.672256 9.000000,107.000000 
M81.812996,30.303600 
	C83.154205,28.396906 84.467201,26.469595 85.842422,24.587757 
	C88.844872,20.479254 89.967026,20.362547 93.491737,24.203436 
	C99.120186,30.336773 104.617882,36.589920 110.201691,42.764530 
	C111.427475,44.120010 112.782578,45.358543 114.863876,47.434772 
	C114.863876,34.680779 114.724037,23.359314 114.941856,12.044730 
	C115.015289,8.230341 113.648972,7.226241 110.023872,7.238011 
	C77.368111,7.344036 44.711555,7.366532 12.056145,7.216012 
	C7.978891,7.197219 7.033023,8.582702 7.058841,12.417724 
	C7.213621,35.409245 7.130665,58.402336 7.146603,81.394890 
	C7.147613,82.851746 7.310582,84.308495 7.397480,85.753242 
	C13.475722,87.128265 17.931356,86.373047 21.621616,80.687134 
	C27.047682,72.326721 33.556812,64.674431 39.479427,56.628380 
	C41.634155,53.701122 43.570026,53.180443 46.347637,55.874432 
	C49.655151,59.082382 53.225773,62.019047 57.058903,65.405914 
	C65.327286,53.686527 73.365944,42.292747 81.812996,30.303600 
M63.834423,66.347374 
	C63.172024,67.303024 62.516323,68.263405 61.846119,69.213554 
	C58.142860,74.463707 57.516506,74.504349 52.757240,70.073166 
	C49.756927,67.279678 46.694771,64.552612 43.358822,61.521797 
	C37.105385,69.958466 31.181068,77.951103 24.954948,86.350922 
	C55.434746,86.350922 84.815178,86.350922 114.707329,86.350922 
	C114.707329,76.898048 114.726089,67.787796 114.673470,58.677956 
	C114.669014,57.907986 114.391747,56.958984 113.895729,56.399437 
	C105.990311,47.481586 98.028511,38.613720 89.803459,29.425999 
	C81.039635,41.878441 72.638100,53.816105 63.834423,66.347374 
M39.499889,100.724915 
	C62.492786,100.724892 85.485687,100.728394 108.478584,100.722664 
	C115.234299,100.720978 115.715576,100.049019 114.019836,93.134445 
	C78.478554,93.134445 42.937275,93.134445 7.437767,93.134445 
	C6.781601,100.709679 6.781595,100.716858 13.507607,100.723022 
	C21.838358,100.730652 30.169123,100.724876 39.499889,100.724915 
z"/>
<path fill="#FF5341" opacity="1.000000" stroke="none" 
	d="
M41.815834,40.824959 
	C36.799232,45.179390 31.576994,46.353115 25.933884,43.170616 
	C20.819641,40.286381 18.359507,35.815269 18.990990,29.867109 
	C19.602089,24.110920 22.965586,20.509726 28.240252,18.604319 
	C33.658653,16.646990 39.675526,18.716396 43.228474,23.607058 
	C47.026630,28.835239 46.649521,34.391567 41.815834,40.824959 
M24.941530,30.671223 
	C25.642595,36.689022 29.162092,39.907040 33.769581,38.640121 
	C37.579880,37.592407 39.793938,35.065529 39.627357,31.050150 
	C39.471603,27.295732 37.291180,24.749205 33.608257,24.145437 
	C29.184578,23.420238 26.337503,25.627323 24.941530,30.671223 
z"/>
</svg>