<svg version="1.1" id="Layer_1" xmlns="http://www.w3.org/2000/svg" xmlns:xlink="http://www.w3.org/1999/xlink" x="0px" y="0px"
	 width="33px" height="32px"  viewBox="0 0 211 191" enable-background="new 0 0 211 191" xml:space="preserve">


<path fill="#039BDF" opacity="1.000000" stroke="none" 
	d="
M27.690483,12.098032 
	C31.164513,13.392227 31.158794,15.910616 31.155832,18.663916 
	C31.106192,64.805222 31.120340,110.946602 31.120543,157.087967 
	C31.120546,158.253998 31.085726,159.421478 31.130989,160.585800 
	C31.367157,166.661026 32.561924,167.827271 38.551445,167.864639 
	C40.185410,167.874832 41.819489,167.866180 43.955170,167.866180 
	C44.052402,165.761093 44.203213,163.994919 44.204887,162.228607 
	C44.222260,143.905334 44.206722,125.582047 44.219791,107.258766 
	C44.225395,99.407951 44.745163,98.915680 52.797142,98.908073 
	C61.292477,98.900047 69.787834,98.898918 78.283165,98.908478 
	C85.796684,98.916939 86.311745,99.408264 86.316597,106.754875 
	C86.328804,125.244728 86.314056,143.734604 86.331543,162.224442 
	C86.333229,164.011047 86.484344,165.797516 86.572525,167.724716 
	C91.324272,167.724716 95.614807,167.724716 100.550262,167.724716 
	C100.642845,165.674454 100.804657,163.753174 100.805328,161.831818 
	C100.819801,120.354561 100.813271,78.877304 100.818970,37.400047 
	C100.820023,29.747368 101.293327,29.281189 109.060440,29.264931 
	C117.555748,29.247150 126.051155,29.245924 134.546448,29.265451 
	C141.749237,29.282007 142.306076,29.829422 142.306915,36.848789 
	C142.311813,78.326050 142.382950,119.803619 142.206955,161.280136 
	C142.187088,165.959961 143.245163,168.046677 148.201752,167.412842 
	C150.923645,167.064774 153.726593,167.350571 156.999619,167.350571 
	C156.999619,164.820724 156.999634,163.031967 156.999634,161.243210 
	C156.999649,135.257462 156.995331,109.271706 157.002884,83.285957 
	C157.004654,77.185249 157.787842,76.385681 163.901932,76.367447 
	C173.396652,76.339127 182.893707,76.252083 192.384476,76.447311 
	C194.354675,76.487831 196.301743,77.652016 198.548904,78.474747 
	C198.895935,109.512688 198.979309,140.374268 198.917877,171.235565 
	C198.915405,172.482773 197.544693,173.727249 196.113846,174.599915 
	C194.924545,174.157837 194.432846,174.028336 193.941177,174.028473 
	C139.940720,174.042633 85.940277,174.066483 31.592617,174.014450 
	C21.813576,170.581528 23.143873,162.235565 22.788277,155.319626 
	C18.259624,154.217072 14.211546,153.231506 10.163467,152.245956 
	C10.110329,151.077118 10.057190,149.908295 10.402706,148.121552 
	C14.721303,146.697235 18.641247,145.890854 22.642605,145.067703 
	C22.642605,139.311890 22.642605,133.442505 22.642605,127.964088 
	C18.247387,127.008675 14.207487,126.130508 10.167589,125.252335 
	C10.113750,124.156296 10.059912,123.060257 10.412110,121.365997 
	C14.727304,119.901573 18.636461,119.035370 22.597500,118.157669 
	C22.597500,112.578735 22.597500,106.863548 22.597500,101.834602 
	C18.130865,100.607071 14.153771,99.514084 10.176679,98.421082 
	C10.119401,97.335541 10.062122,96.250000 10.416859,94.573997 
	C14.724133,93.121788 18.619394,92.260040 22.658319,91.366508 
	C22.658319,85.794662 22.658319,80.120956 22.658319,74.944847 
	C18.233068,73.870621 14.193203,72.889946 10.153337,71.909271 
	C10.110099,70.748894 10.066861,69.588509 10.396072,67.784447 
	C14.705249,66.358612 18.641975,65.576469 22.652163,64.779724 
	C22.652163,59.145531 22.652163,53.408970 22.652163,48.258465 
	C18.213034,47.118076 14.183790,46.082981 10.154547,45.047886 
	C10.106092,43.907005 10.057638,42.766129 10.397143,40.999084 
	C14.662152,39.546936 18.539202,38.720951 22.621172,37.851307 
	C22.621172,32.253502 22.621172,26.434038 22.621172,21.146189 
	C18.190788,20.102657 14.175544,19.156908 10.160299,18.211161 
	C10.160299,16.461071 10.160299,14.710979 10.160299,13.286376 
	C16.150232,12.845565 21.702915,12.436933 27.690483,12.098032 
M125.449448,167.349335 
	C135.492584,167.245010 133.807861,168.318405 133.822540,158.828857 
	C133.882019,120.390915 133.847229,81.952820 133.847244,43.514782 
	C133.847244,41.742588 133.847260,39.970394 133.847260,38.146317 
	C125.221710,38.146317 117.213631,38.146317 109.001717,38.146317 
	C109.001717,58.900692 109.001701,79.188293 109.001717,99.475899 
	C109.001724,120.442101 109.106956,141.409302 108.909554,162.373642 
	C108.871841,166.378891 110.070068,167.727325 113.983963,167.408279 
	C117.455246,167.125320 120.967850,167.349380 125.449448,167.349335 
M190.683517,135.500061 
	C190.683517,118.755455 190.683517,102.010849 190.683517,85.286484 
	C181.834030,85.286484 173.753250,85.286484 165.215973,85.286484 
	C165.215973,112.021034 165.178253,138.450073 165.360352,164.877609 
	C165.367310,165.885178 167.455429,167.680618 168.644226,167.741928 
	C174.454926,168.041565 180.297745,167.690994 186.112686,167.946289 
	C189.586029,168.098770 190.820709,166.997864 190.745956,163.465591 
	C190.555847,154.480667 190.683075,145.489029 190.683517,135.500061 
M77.850845,117.524940 
	C77.850845,114.088913 77.850845,110.652885 77.850845,107.225815 
	C69.339134,107.225815 61.403137,107.225815 53.229778,107.225815 
	C53.229778,127.188507 53.229778,146.926285 53.229778,167.347519 
	C60.199402,167.347519 66.978012,167.206314 73.746475,167.407211 
	C77.118668,167.507309 77.946976,166.205002 77.915543,163.012711 
	C77.769531,148.182816 77.850838,133.350647 77.850845,117.524940 
z"/>

</svg>