<svg version="1.1" id="Layer_1" xmlns="http://www.w3.org/2000/svg" xmlns:xlink="http://www.w3.org/1999/xlink" x="0px" y="0px"
	 width="32px" height="32px" viewBox="0 0 117 117" enable-background="new 0 0 117 117" xml:space="preserve">
<path fill="#ffffff99" opacity="1.000000" stroke="none" 
	d="
M1.000000,61.000000 
	C1.000000,59.933212 1.000000,58.866425 1.343411,57.172375 
	C2.987125,34.196472 14.166992,18.263988 33.785294,8.229386 
	C38.794571,5.667181 44.580009,4.622407 50.473644,2.944378 
	C56.154999,2.639965 61.371552,2.271629 66.871834,2.112945 
	C67.749817,2.857792 68.291031,3.780232 68.946304,3.869999 
	C78.517426,5.181158 86.961761,9.084788 94.319756,15.194109 
	C105.312241,24.321125 113.193657,35.411964 115.054047,50.472427 
	C115.017410,56.607338 115.045517,62.276871 115.035255,68.366516 
	C113.846001,79.655823 108.834320,88.684967 101.777481,96.781372 
	C93.044540,106.800797 81.855331,112.559952 68.710236,115.834045 
	C61.754021,115.839684 55.277981,115.832092 48.576283,115.535004 
	C47.200241,115.138947 46.003742,115.201012 44.906330,114.900818 
	C25.050148,109.469345 6.177867,91.226883 2.971523,70.861588 
	C2.450605,67.552948 1.663869,64.286140 1.000000,61.000000 
M7.877936,49.391293 
	C7.588695,53.324406 7.072200,57.256203 7.049322,61.190865 
	C6.947094,78.772949 15.149128,92.466377 28.636969,102.643974 
	C45.622650,115.460953 71.712151,115.556976 88.549911,102.191895 
	C105.389473,88.825401 113.599350,72.202919 110.049156,50.379250 
	C105.109512,20.014441 75.767609,1.554690 46.355469,8.336537 
	C35.124523,10.926167 26.407780,17.396662 18.839491,25.729433 
	C12.931136,32.234592 9.370830,39.860325 7.877936,49.391293 
z"/>
<path fill="#ffffff99" opacity="1.000000" stroke="none" 
	d="
M81.748436,56.520790 
	C81.015930,57.456654 80.512398,58.161659 79.844475,58.634415 
	C75.048218,62.029243 72.290466,65.459877 74.673309,72.296333 
	C76.621658,77.886215 72.321121,80.508682 66.773300,77.956123 
	C65.874550,77.542595 64.797264,77.259300 64.158615,76.580673 
	C60.415905,72.603661 56.781921,74.208122 53.064140,76.568153 
	C51.689564,77.440720 50.289238,78.493034 48.757175,78.853447 
	C45.046146,79.726440 42.593304,77.339775 43.039909,73.561371 
	C43.115662,72.920471 43.435143,72.311852 43.600628,71.677513 
	C44.678139,67.547226 45.753765,63.493465 40.585873,61.017002 
	C39.313526,60.407288 38.370228,59.017799 37.405956,57.876682 
	C35.016476,55.048981 35.884262,52.155319 39.431698,51.024387 
	C40.677368,50.627266 42.051891,49.882355 43.215065,50.102409 
	C49.958096,51.378109 50.729507,45.957695 52.990356,41.929642 
	C54.184704,39.801731 55.910999,36.894100 57.834518,36.505932 
	C60.735332,35.920544 63.240383,38.021610 64.235603,41.380493 
	C66.145439,47.826187 70.008202,51.546429 77.361877,51.293003 
	C78.817131,51.242855 80.385246,54.467808 81.748436,56.520790 
M51.727867,53.717655 
	C48.389362,54.268299 45.050861,54.818943 40.605137,55.552208 
	C47.017567,59.954082 53.191174,64.074226 49.051819,73.526802 
	C56.628262,66.420952 63.061367,70.567978 69.801300,74.451187 
	C69.801300,72.878464 70.020744,72.140549 69.767593,71.643196 
	C67.029594,66.264046 66.478325,61.541206 73.038116,58.396183 
	C74.083237,57.895107 74.706711,56.514534 76.171051,54.771851 
	C65.740166,56.127346 61.732895,49.977024 59.340794,41.218884 
	C56.597107,45.908367 54.464661,49.553131 51.727867,53.717655 
z"/>

</svg>