<svg version="1.1" id="Layer_1" xmlns="http://www.w3.org/2000/svg" xmlns:xlink="http://www.w3.org/1999/xlink" x="0px" y="0px"
	 width="32px" height="32px"  viewBox="0 0 272 281" enable-background="new 0 0 272 281" xml:space="preserve">
<path fill="#ffffff99" opacity="1.000000" stroke="none" 
	d="
M231.174042,274.823364 
	C166.347046,274.829132 101.520042,274.834930 36.081207,274.518066 
	C34.694920,271.658661 32.584846,268.542999 33.387970,266.689911 
	C36.174343,260.260895 39.174927,253.624039 43.539680,248.237747 
	C55.313496,233.708405 71.664177,226.233734 89.113487,220.778336 
	C93.168373,219.510590 97.048378,217.683472 100.705444,215.821655 
	C90.909233,215.355789 81.416443,215.182022 71.588379,214.803436 
	C70.837723,213.568283 70.100800,212.551422 70.056908,211.505508 
	C69.639687,201.564499 69.132767,191.620224 69.053986,181.673676 
	C68.927483,165.701920 70.432625,149.974716 77.738487,135.373779 
	C79.628700,131.596146 78.490395,129.020782 75.152519,126.567795 
	C64.614235,118.823288 54.202236,110.903572 43.845749,102.916313 
	C37.193798,97.786095 30.725624,92.417587 24.175076,87.155891 
	C24.169710,85.649338 24.164347,84.142784 24.460716,82.062332 
	C43.600182,68.032303 62.459599,54.606369 81.266319,41.107029 
	C90.397789,34.552525 99.339211,27.730488 108.535110,21.269325 
	C116.889977,15.399096 125.473076,9.853711 133.955551,4.165118 
	C134.137955,4.123365 134.320358,4.081614 134.958649,4.374459 
	C143.311981,10.328437 151.239426,15.906192 159.101379,21.574768 
	C186.052124,41.006630 213.001785,60.440300 239.857635,80.002640 
	C241.341782,81.083717 241.974792,83.333260 243.004883,85.505051 
	C243.005173,106.967796 243.004562,127.964424 243.044586,149.339905 
	C246.052917,157.931046 248.889740,166.193832 252.030853,174.339264 
	C254.429169,180.558426 257.212891,186.628983 259.825134,192.765640 
	C259.848907,193.946396 259.872711,195.127151 259.596405,196.933319 
	C254.047760,202.062195 250.427658,201.143921 247.904907,194.592850 
	C246.768219,191.641113 245.792542,188.627396 244.743820,185.641800 
	C244.307999,185.721451 243.872177,185.801117 243.436356,185.880783 
	C243.436356,188.232834 243.266159,190.599960 243.472610,192.933762 
	C243.874100,197.472366 241.804626,200.971100 238.252686,200.908722 
	C233.793686,200.830399 232.940903,197.725662 232.998901,194.019775 
	C233.044205,191.124466 233.007980,188.227875 233.007980,185.331863 
	C230.643341,188.588730 229.261292,192.051437 227.720795,195.442139 
	C226.390350,198.370483 224.746490,201.466599 220.831070,200.306030 
	C216.450745,199.007675 216.264893,195.460266 217.564362,191.797745 
	C220.326859,184.011826 223.010529,176.185806 226.136444,168.543915 
	C230.490280,157.900040 233.879135,147.306808 233.130127,135.423004 
	C232.366882,123.313187 233.055466,111.111885 233.219009,98.862267 
	C233.491211,98.499550 233.432022,98.264679 232.942429,97.813072 
	C231.408234,98.010834 229.859924,98.166016 228.793610,98.964714 
	C217.405319,107.494873 206.075989,116.104187 194.766907,124.739487 
	C187.880356,129.997879 187.895248,131.654144 191.230453,139.745422 
	C193.782455,145.936646 196.308533,152.506393 196.866135,159.075836 
	C198.051514,173.041443 198.306183,187.120071 198.166443,201.144653 
	C198.120880,205.718063 200.187271,211.340927 194.604065,214.998291 
	C187.647156,214.992950 181.162033,214.892014 174.683334,215.051163 
	C171.779953,215.122482 168.889374,215.714828 166.074539,216.437073 
	C176.191162,220.567673 186.458954,223.815674 196.209686,228.210785 
	C213.086853,235.818085 226.446548,247.337372 233.629868,265.019104 
	C235.268600,269.052887 235.132156,272.339020 231.174042,274.823364 
M188.571152,192.310074 
	C188.418289,189.567261 188.265427,186.824432 188.007553,183.192337 
	C188.048248,181.106628 188.088943,179.020905 188.340973,176.758255 
	C188.490509,176.487823 188.427032,176.260132 187.970078,175.281845 
	C187.410736,172.678452 186.851395,170.075073 186.099152,166.573853 
	C184.402756,171.243256 183.643555,175.287766 181.609634,178.533478 
	C177.067795,185.781311 171.984467,192.700012 166.913986,199.600159 
	C165.392685,201.670425 163.772522,204.855652 166.454926,205.211426 
	C172.897629,206.065903 179.557022,205.429764 186.112885,205.087006 
	C186.845856,205.048676 187.475067,203.026352 188.355881,201.738815 
	C188.488419,201.460938 188.412460,201.235962 188.012314,200.165344 
	C188.045746,197.749710 188.079178,195.334061 188.571152,192.310074 
M155.692810,264.600952 
	C165.404358,264.465271 175.115891,264.329590 185.447861,263.857178 
	C190.399994,257.922882 195.471298,252.079102 200.142548,245.931396 
	C200.682404,245.220932 199.451950,242.002579 198.267151,241.346313 
	C193.215851,238.548355 187.987823,235.960724 182.570892,233.994400 
	C180.823456,233.360077 177.452896,234.135559 176.269608,235.509964 
	C169.059479,243.884857 162.240402,252.598236 155.386520,261.274261 
	C154.891800,261.900482 155.155914,263.126129 155.692810,264.600952 
M83.825882,264.633545 
	C88.940445,264.754608 94.057358,265.029968 99.168907,264.952393 
	C104.068260,264.878021 108.962067,264.437408 114.260750,263.743591 
	C114.293945,263.581116 114.414276,263.350067 114.348015,263.265900 
	C106.510292,253.311310 98.687187,243.344742 90.750557,233.469406 
	C90.154953,232.728302 88.469688,232.028381 87.753487,232.347473 
	C80.346474,235.647476 73.034645,239.161133 64.569679,243.145660 
	C71.496391,250.982147 77.332611,257.584930 83.825882,264.633545 
M116.699814,247.679703 
	C125.835274,247.786362 134.970779,247.962296 144.106171,247.955414 
	C146.684158,247.953476 149.261749,247.416382 152.444870,246.777130 
	C157.152908,241.008331 161.860947,235.239548 167.808060,227.952499 
	C152.761902,228.517349 153.361618,219.184860 153.975739,209.336517 
	C139.951569,215.745575 126.747147,214.683609 113.544533,209.851456 
	C113.049362,214.910309 113.887146,219.949265 111.852211,223.177261 
	C109.955185,226.186493 105.003159,227.269821 100.436813,229.714386 
	C105.683968,235.528198 110.904137,241.312119 116.699814,247.679703 
M43.346363,81.924370 
	C37.609890,85.578758 37.630253,85.552963 42.890400,89.524208 
	C47.492931,92.998970 52.006413,96.592125 56.624146,100.046196 
	C63.425461,105.133629 70.284439,110.143967 77.818634,115.703506 
	C78.382690,113.477074 78.962357,112.265739 78.952278,111.059319 
	C78.867752,100.938477 84.386017,93.982735 91.792404,88.096687 
	C109.896149,73.709160 130.794647,74.102364 151.897003,77.510742 
	C163.495895,79.384148 174.203079,84.602890 181.327545,94.213234 
	C185.580185,99.949677 187.639984,107.311745 190.994080,114.614922 
	C202.759933,105.585045 215.317169,95.947800 228.477798,85.847473 
	C226.157837,83.897972 224.272537,82.115990 222.192871,80.600807 
	C213.759293,74.456383 205.254745,68.409492 196.796951,62.298141 
	C176.793030,47.843887 156.781906,33.399380 136.829178,18.874720 
	C134.478394,17.163458 132.954620,17.058315 130.366959,18.948454 
	C101.649162,39.925064 72.781425,60.696384 43.346363,81.924370 
M151.566818,198.169769 
	C170.433273,186.176254 176.917130,167.845932 177.972504,146.701859 
	C178.114349,143.859711 176.956223,142.916489 174.192581,142.957062 
	C166.374130,143.071823 158.549667,143.135391 150.733459,142.958725 
	C140.192078,142.720459 130.092224,140.224136 120.901657,135.121231 
	C116.649551,132.760330 113.473190,130.192184 111.834450,137.252579 
	C111.634995,138.111938 110.602295,138.778946 109.952942,139.532684 
	C104.765717,145.553650 98.005608,148.632828 89.912582,149.597946 
	C90.246658,162.869934 93.258514,174.887207 101.178795,185.140015 
	C113.819145,201.502960 130.509445,208.361481 151.566818,198.169769 
M95.670189,116.121414 
	C123.462006,102.930519 150.679596,104.226959 177.516617,119.799461 
	C179.019272,111.769958 177.621567,105.058754 171.948257,99.409859 
	C164.952774,92.444473 156.164932,89.394463 146.797821,87.450562 
	C129.592590,83.880058 113.543175,86.859711 98.760422,96.201218 
	C90.558357,101.384270 86.903435,111.874580 90.242096,119.947533 
	C91.886421,118.755615 93.453560,117.619652 95.670189,116.121414 
M155.981445,133.001480 
	C161.258835,132.675903 166.536209,132.350327 172.225372,131.999344 
	C166.585938,119.451645 131.475830,114.429291 119.788910,120.323624 
	C122.054077,124.630501 126.105751,126.712280 130.234497,127.784485 
	C138.431503,129.913223 146.822861,131.293610 155.981445,133.001480 
M85.453339,178.937363 
	C83.900421,175.022751 82.347496,171.108154 80.794579,167.193542 
	C80.200684,167.284943 79.606789,167.376358 79.012894,167.467758 
	C79.012894,176.054886 78.972679,184.642288 79.035126,193.228958 
	C79.056427,196.158234 79.793381,199.153122 79.374176,201.995743 
	C78.914207,205.114624 80.166069,205.954819 82.761047,205.978928 
	C87.573746,206.023636 92.395386,206.159637 97.195396,205.911331 
	C98.753662,205.830719 101.230377,204.957718 101.535461,203.928131 
	C101.910553,202.662292 100.695007,200.685760 99.744957,199.307297 
	C95.181389,192.685791 90.475426,186.162415 85.453339,178.937363 
M67.143173,263.018921 
	C64.753532,259.869904 62.341942,256.737244 59.980686,253.567093 
	C57.805096,250.646225 55.597076,250.279312 53.187420,253.293839 
	C51.330502,255.616898 49.233189,257.772003 47.582733,260.230042 
	C45.301464,263.627625 46.029297,265.043945 50.242516,264.929932 
	C55.833786,264.778656 61.411293,264.118622 67.143173,263.018921 
M212.354919,265.006683 
	C215.139771,264.721283 217.924622,264.435883 222.221573,263.995544 
	C217.886429,258.616669 214.673676,254.630402 211.030716,250.110382 
	C206.938126,255.171555 203.585724,259.317352 200.233322,263.463165 
	C200.420731,263.977692 200.608154,264.492188 200.795563,265.006683 
	C204.337463,265.006683 207.879379,265.006683 212.354919,265.006683 
M99.963760,126.589920 
	C95.682838,129.193298 91.061401,131.497925 90.008728,137.321030 
	C98.171150,138.121292 104.672638,132.046524 103.953949,124.392227 
	C102.741905,125.058723 101.657448,125.655060 99.963760,126.589920 
M127.668266,263.005676 
	C134.609955,266.992065 140.422958,265.059296 141.818451,258.468994 
	C136.391190,258.468994 130.936127,258.468994 125.042427,258.468994 
	C125.974457,260.148651 126.595299,261.267517 127.668266,263.005676 
z"/>




</svg>