<svg version="1.1" id="Layer_1" xmlns="http://www.w3.org/2000/svg" xmlns:xlink="http://www.w3.org/1999/xlink" x="0px" y="0px"
	 width="26px" height="26px" viewBox="0 0 117 116" enable-background="new 0 0 117 116" xml:space="preserve">
<path fill="#fff" opacity="1.000000" stroke="none" 
	d="
M52.000000,1.000000 
	C56.356899,1.000000 60.713802,1.000000 65.750626,1.299629 
	C67.814743,2.069054 69.171432,2.654782 70.587395,2.990685 
	C84.535439,6.299509 96.045189,13.225241 104.655151,24.950605 
	C110.216873,32.524769 113.428062,40.997971 115.841202,50.392410 
	C115.857506,55.940552 115.828743,61.016491 115.538361,66.356422 
	C113.508255,78.147217 108.825531,88.177933 100.803619,96.805550 
	C91.818329,106.469276 80.692070,111.890686 67.618706,114.849663 
	C61.405945,114.864601 55.664639,114.831459 49.651962,114.545532 
	C28.667250,110.581566 14.610725,98.523453 6.021532,79.651314 
	C4.270015,75.802887 2.669904,71.885567 1.000000,68.000000 
	C1.000000,61.645603 1.000000,55.291203 1.199656,48.127930 
	C1.931251,46.692177 2.764687,46.143726 2.951113,45.426983 
	C7.850608,26.590233 18.947350,13.099214 37.189957,5.885506 
	C42.015972,3.977146 47.057453,2.613672 52.000000,1.000000 
M107.861649,43.930687 
	C104.003227,37.219376 101.097816,29.671549 96.091408,23.967892 
	C85.082664,11.425982 70.707787,6.904706 53.851498,7.781153 
	C36.095299,8.704391 17.101423,23.910912 11.668515,39.538074 
	C8.275082,49.298916 7.179847,59.156113 9.070468,69.300446 
	C10.746655,78.294228 14.893198,85.997612 21.571661,93.005928 
	C24.449575,81.692818 30.384153,73.335335 40.331352,67.975067 
	C39.671066,66.793007 39.273697,66.099747 38.893040,65.397430 
	C33.828247,56.052719 35.584793,44.097927 42.993435,37.474754 
	C50.922386,30.386442 64.972969,30.081825 73.443802,36.983673 
	C81.947510,43.912296 85.232941,55.475353 78.968689,65.462814 
	C77.478157,67.839249 78.592400,68.631310 80.282951,70.240662 
	C84.414078,74.173340 88.321411,78.407677 91.828598,82.903061 
	C93.785774,85.411697 94.763382,88.684570 96.413292,92.089493 
	C108.794319,77.996826 112.125175,62.293358 107.861649,43.930687 
M89.889061,97.903770 
	C89.809364,86.802673 83.528008,79.458664 74.905518,73.711533 
	C73.926414,73.058929 71.719109,73.518860 70.438911,74.168076 
	C62.807549,78.038040 55.330853,78.145889 47.556831,74.424301 
	C45.945946,73.653145 43.072884,73.969780 41.495922,74.942833 
	C34.412628,79.313507 30.084755,85.880775 28.189520,93.945587 
	C27.382973,97.377693 27.909595,100.316147 31.676661,102.237679 
	C41.037064,107.012283 50.337112,110.415634 61.385662,109.278618 
	C71.981888,108.188156 81.328362,105.184799 89.889061,97.903770 
M66.691650,69.611000 
	C71.651672,65.421646 75.608795,60.919804 75.085770,53.618530 
	C74.577103,46.517635 70.669128,40.259151 64.483330,38.296398 
	C57.550449,36.096600 49.135380,38.754196 45.365215,44.334171 
	C41.133339,50.597477 40.872974,59.223400 45.028145,64.423615 
	C50.957195,71.843834 54.841297,73.099731 66.691650,69.611000 
z"/>

</svg>